<?xml version="1.0" standalone="no"?><!DOCTYPE svg PUBLIC "-//W3C//DTD SVG 1.1//EN" "http://www.w3.org/Graphics/SVG/1.1/DTD/svg11.dtd"><svg t="1657180930742" class="icon" viewBox="0 0 1024 1024" version="1.1" xmlns="http://www.w3.org/2000/svg" p-id="11427" xmlns:xlink="http://www.w3.org/1999/xlink" width="200" height="200"><defs><style type="text/css">@font-face { font-family: feedback-iconfont; src: url("//at.alicdn.com/t/font_1031158_u69w8yhxdu.woff2?t=1630033759944") format("woff2"), url("//at.alicdn.com/t/font_1031158_u69w8yhxdu.woff?t=1630033759944") format("woff"), url("//at.alicdn.com/t/font_1031158_u69w8yhxdu.ttf?t=1630033759944") format("truetype"); }
</style></defs><path d="M512 981.333333c-123.733333 0-243.2-51.2-332.8-136.533333C93.866667 755.2 42.666667 635.733333 42.666667 512c0-123.733333 51.2-243.2 136.533333-332.8C268.8 93.866667 388.266667 42.666667 512 42.666667c123.733333 0 243.2 51.2 332.8 136.533333 85.333333 89.6 136.533333 209.066667 136.533333 332.8 0 123.733333-51.2 243.2-136.533333 332.8-89.6 85.333333-209.066667 136.533333-332.8 136.533333z m0-320c-17.066667 0-34.133333 8.533333-46.933333 17.066667-12.8 12.8-17.066667 29.866667-17.066667 46.933333 0 17.066667 8.533333 34.133333 17.066667 46.933334 12.8 12.8 29.866667 17.066667 46.933333 17.066666 17.066667 0 34.133333-8.533333 46.933333-17.066666 12.8-12.8 17.066667-29.866667 17.066667-46.933334 0-17.066667-8.533333-34.133333-17.066667-46.933333-12.8-8.533333-29.866667-17.066667-46.933333-17.066667z m0-426.666666c-34.133333 0-64 29.866667-64 64v213.333333c0 34.133333 29.866667 64 64 64s64-29.866667 64-64V298.666667c0-34.133333-29.866667-64-64-64z" p-id="11428" fill="#ea9518"></path></svg>