<?xml version="1.0" standalone="no"?><!DOCTYPE svg PUBLIC "-//W3C//DTD SVG 1.1//EN" "http://www.w3.org/Graphics/SVG/1.1/DTD/svg11.dtd"><svg t="1657942365848" class="icon" viewBox="0 0 1024 1024" version="1.1" xmlns="http://www.w3.org/2000/svg" p-id="8904" xmlns:xlink="http://www.w3.org/1999/xlink" width="200" height="200"><defs><style type="text/css">@font-face { font-family: feedback-iconfont; src: url("//at.alicdn.com/t/font_1031158_u69w8yhxdu.woff2?t=1630033759944") format("woff2"), url("//at.alicdn.com/t/font_1031158_u69w8yhxdu.woff?t=1630033759944") format("woff"), url("//at.alicdn.com/t/font_1031158_u69w8yhxdu.ttf?t=1630033759944") format("truetype"); }
</style></defs><path d="M615.90666666 893.92c-6.2 0-13.64-1.24-19.84-4.96-3.72-1.24-8.68-2.48-12.4-4.96L164.54666666 627.32c-13.64-8.68-19.84-23.56-18.6-38.44 1.24-14.88 11.16-28.52 23.56-34.72 66.96-24.8 128.96-60.76 182.28-105.4 18.6-16.12 37.2-33.48 54.56-52.08l2.48-2.48c24.8-28.52 47.12-59.52 64.48-94.24 0-1.24 1.24-1.24 1.24-2.48 0 0 1.24-1.24 1.24-2.48s1.24-2.48 2.48-2.48c0 0 2.48-2.48 2.48-3.72 0 0 2.48-1.24 2.48-2.48 0 0 2.48-2.48 3.72-2.48l1.24-1.24s1.24-1.24 2.48-1.24c0 0 1.24-1.24 2.48-1.24 0 0 1.24 0 1.24-1.24 0 0 1.24 0 1.24-1.24 1.24 0 2.48-1.24 2.48-1.24h21.08c1.24 0 2.48 0 3.72 1.24h2.48s1.24 1.24 2.48 1.24l109.12 54.56 104.16-189.72c8.68-17.36 32.24-21.08 54.56-9.92 22.32 11.16 33.48 33.48 24.8 50.84l-104.16 189.72 96.72 48.36c6.2 3.72 11.16 7.44 14.88 13.64 4.96 6.2 7.44 14.88 7.44 23.56-1.24 76.88-18.6 151.28-50.84 221.96-34.72 74.4-81.84 140.12-141.36 197.16-7.44 11.16-17.36 14.88-27.28 14.88zM452.22666666 767.44l147.56 90.52c1.24 1.24 2.48 1.24 3.72 1.24 2.48 0 4.96 1.24 6.2 2.48 3.72 2.48 8.68 2.48 12.4-1.24 55.8-54.56 101.68-117.8 135.16-188.48 31-65.72 47.12-136.4 48.36-209.56 0-2.48 0-3.72-1.24-4.96l-1.24-1.24-3.72-3.72-110.36-55.8c-3.72-1.24-6.2-4.96-7.44-8.68-1.24-3.72-1.24-7.44 1.24-11.16l111.6-203.36c0-1.24-3.72-6.2-11.16-11.16-7.44-3.72-14.88-2.48-16.12-2.48l-111.6 203.36c-3.72 7.44-12.4 9.92-19.84 6.2l-121.52-60.76h-1.24H509.26666666s-1.24 0-1.24 1.24h-1.24c-1.24 0-1.24 1.24-2.48 1.24H503.06666666s0 1.24-1.24 1.24c0 0 0 1.24-1.24 1.24v1.24c-18.6 35.96-42.16 69.44-69.44 100.44l-1.24 1.24c-17.36 19.84-37.2 38.44-58.28 55.8-57.04 47.12-121.52 84.32-189.72 110.36-2.48 1.24-6.2 4.96-6.2 9.92s1.24 8.68 4.96 11.16l97.96 59.52 116.56-84.32 17.36 23.56-106.64 78.12 119.04 73.16 107.88-86.8 18.6 23.56-99.2 76.88z m-22.32-353.4z m70.68-100.44c0 1.24-1.24 1.24-1.24 1.24 0-1.24 0-1.24 1.24-1.24z m-1.24-7.44l3.72 2.48h1.24l-9.92-9.92 4.96 7.44z m9.92 1.24z m-4.96-7.44l1.24 3.72-2.48-9.92 1.24 6.2z m214.52 312.48l-260.4-148.8 14.88-26.04 260.4 148.8-14.88 26.04z" fill="#13227a" p-id="8905"></path></svg>