<?xml version="1.0" standalone="no"?><!DOCTYPE svg PUBLIC "-//W3C//DTD SVG 1.1//EN" "http://www.w3.org/Graphics/SVG/1.1/DTD/svg11.dtd"><svg t="1660032543491" class="icon" viewBox="0 0 1024 1024" version="1.1" xmlns="http://www.w3.org/2000/svg" p-id="8635" xmlns:xlink="http://www.w3.org/1999/xlink" width="200" height="200"><defs><style type="text/css">@font-face { font-family: feedback-iconfont; src: url("//at.alicdn.com/t/font_1031158_u69w8yhxdu.woff2?t=1630033759944") format("woff2"), url("//at.alicdn.com/t/font_1031158_u69w8yhxdu.woff?t=1630033759944") format("woff"), url("//at.alicdn.com/t/font_1031158_u69w8yhxdu.ttf?t=1630033759944") format("truetype"); }
</style></defs><path d="M873.594739 873.716723a511.792629 511.792629 0 1 1 0-723.848188 511.792629 511.792629 0 0 1 0 723.848188z m-129.0826-543.313083a36.594954 36.594954 0 0 0-51.769662-51.720868l-181.120625 181.267005-181.145022-181.267005a36.594954 36.594954 0 0 0-51.745264 51.720868l181.120625 181.267005-181.120625 181.023039a36.594954 36.594954 0 0 0 51.745264 51.720868l181.145022-181.023038 181.120625 181.023038a36.594954 36.594954 0 0 0 51.769662-51.720868l-181.145022-181.023039z" p-id="8636" fill="#da5160"></path></svg>