<?xml version="1.0" standalone="no"?><!DOCTYPE svg PUBLIC "-//W3C//DTD SVG 1.1//EN" "http://www.w3.org/Graphics/SVG/1.1/DTD/svg11.dtd"><svg t="1660013462070" class="icon" viewBox="0 0 1024 1024" version="1.1" xmlns="http://www.w3.org/2000/svg" p-id="8436" xmlns:xlink="http://www.w3.org/1999/xlink" width="200" height="200"><defs><style type="text/css">@font-face { font-family: feedback-iconfont; src: url("//at.alicdn.com/t/font_1031158_u69w8yhxdu.woff2?t=1630033759944") format("woff2"), url("//at.alicdn.com/t/font_1031158_u69w8yhxdu.woff?t=1630033759944") format("woff"), url("//at.alicdn.com/t/font_1031158_u69w8yhxdu.ttf?t=1630033759944") format("truetype"); }
</style></defs><path d="M900.646 275.188H289.863a59.208 59.208 0 0 0-43.192 18.711L80.163 471.508c-21.348 22.772-21.348 58.213 0 80.985l166.508 177.609a59.208 59.208 0 0 0 43.192 18.711h610.783c32.561 0 59.203-26.642 59.203-59.203V334.391c0-32.561-26.642-59.203-59.203-59.203zM728.706 619.37c12.176 12.17 12.176 31.91 0 44.077-6.081 6.092-14.065 9.135-22.04 9.135-7.977 0-15.959-3.042-22.04-9.135l-93.683-93.683-93.683 93.683c-6.081 6.092-14.064 9.135-22.04 9.135-7.975 0-15.959-3.042-22.04-9.135-12.176-12.167-12.176-31.907 0-44.077l93.684-93.683-93.684-93.683c-12.176-12.17-12.176-31.91 0-44.081 12.163-12.174 31.918-12.174 44.081 0l93.683 93.686 93.683-93.686c12.163-12.174 31.918-12.174 44.081 0 12.176 12.17 12.176 31.911 0 44.081l-93.684 93.683 93.682 93.683z" p-id="8437" fill="#da5160"></path></svg>