<?xml version="1.0" standalone="no"?><!DOCTYPE svg PUBLIC "-//W3C//DTD SVG 1.1//EN" "http://www.w3.org/Graphics/SVG/1.1/DTD/svg11.dtd"><svg t="1660010778033" class="icon" viewBox="0 0 1024 1024" version="1.1" xmlns="http://www.w3.org/2000/svg" p-id="2461" xmlns:xlink="http://www.w3.org/1999/xlink" width="200" height="200"><defs><style type="text/css">@font-face { font-family: feedback-iconfont; src: url("//at.alicdn.com/t/font_1031158_u69w8yhxdu.woff2?t=1630033759944") format("woff2"), url("//at.alicdn.com/t/font_1031158_u69w8yhxdu.woff?t=1630033759944") format("woff"), url("//at.alicdn.com/t/font_1031158_u69w8yhxdu.ttf?t=1630033759944") format("truetype"); }
</style></defs><path d="M777.933 584.09l214.835-207.872c40.96-39.63 40.96-99.021 0-138.65L777.933 29.696l-15.36-14.848C752.333 9.882 737.024 4.966 726.784 0h-40.909c-10.24 0-25.6 4.966-35.789 14.848l-15.36 14.848L31.232 618.752c-40.96 39.578-40.96 98.97 0 138.547l214.835 207.872c15.36 19.866 40.909 29.696 61.338 29.696h613.734v-49.459H409.702l368.23-361.318zM312.525 945.408c-10.24 0-25.6-4.915-35.84-14.848L61.9 722.688c-5.12-9.933-10.24-19.814-10.24-34.662 0-14.848 5.12-24.73 15.36-34.663l332.441-321.74c0 19.814 10.24 34.662 25.6 49.51l214.784 207.872c15.36 14.848 30.72 19.814 46.08 24.78L353.434 935.527c-10.24 4.967-25.6 9.882-40.91 9.882z" p-id="2462" fill="#1b2583"></path></svg>