<?xml version="1.0" standalone="no"?><!DOCTYPE svg PUBLIC "-//W3C//DTD SVG 1.1//EN" "http://www.w3.org/Graphics/SVG/1.1/DTD/svg11.dtd"><svg t="1657942196111" class="icon" viewBox="0 0 1024 1024" version="1.1" xmlns="http://www.w3.org/2000/svg" p-id="1350" xmlns:xlink="http://www.w3.org/1999/xlink" width="200" height="200"><defs><style type="text/css">@font-face { font-family: feedback-iconfont; src: url("//at.alicdn.com/t/font_1031158_u69w8yhxdu.woff2?t=1630033759944") format("woff2"), url("//at.alicdn.com/t/font_1031158_u69w8yhxdu.woff?t=1630033759944") format("woff"), url("//at.alicdn.com/t/font_1031158_u69w8yhxdu.ttf?t=1630033759944") format("truetype"); }
</style></defs><path d="M218.2 997c-3.7 0-6.8-0.1-9.8-0.4-38.9-2.2-75.3-17.3-103.8-43.8-34.6-30.9-53.9-76.1-53.9-126.9V167.2C50.7 92 102.7 24 174.3 5.5 195.7 0.1 215.9 0.1 235.4 0.1L791 0c22.2 0 47.3 0 72.2 9.7 37.2 14.3 67.2 39 86.3 71.4 15.5 26.5 23.7 56.2 23.7 86.1v401.7c0 17.2-13.9 31.2-31.2 31.2s-31.2-13.9-31.2-31.2V167.2c0-18.7-5.2-37.6-15.2-54.5-11.9-20.1-30.9-35.7-55.1-44.9-14.1-5.5-31.4-5.5-49.7-5.5H235.5c-17.9 0.1-32.4 0.2-45.7 3.6-44.4 11.4-76.7 54-76.7 101.3V826c0 32.8 11.9 61.5 33.4 80.7 18.3 16.9 41.2 26.3 66.9 27.8 3.8 0.4 6.5 0.1 8.9 0.1l8.3-0.1h244.8c17.2 0 31.2 13.9 31.2 31.2s-13.9 31.2-31.2 31.2H230.5c-4.9 0-8.9 0.1-12.3 0.1z" fill="#13227a" p-id="1351"></path><path d="M683.4 1024c-15.7 0-31-5.9-43.1-16.6L553 928.8c-12.7-11.6-13.7-31.3-2.1-44s31.3-13.6 44-2.1l86.9 78.3 223.6-233.3c11.9-12.4 31.8-12.7 44.1-0.7 12.4 12 12.7 31.7 0.7 44.1l-219.5 230.8c-15.3 15.6-30.7 22.1-47.3 22.1zM287.8 696c-16.9 0-31.1 14.3-31.1 31.2 0.7 17.1 14.6 31.2 31.1 31.2h166.5c16.9 0 31.2-14.3 31.2-31.2S471.2 696 454.3 696H287.8zM287.8 461.3c-16.9 0-31.2 14.3-31.2 31.2 0.7 17.1 14.6 31.2 31.2 31.2h416.9c16.9 0 31.2-14.3 31.2-31.2s-14.3-31.2-31.2-31.2H287.8zM287.8 226.6c-16.9 0-31.2 14.3-31.2 31.2 0.7 17.1 14.6 31.2 31.2 31.2h416.9c16.9 0 31.2-14.3 31.2-31.2s-14.3-31.2-31.2-31.2H287.8z" fill="#13227a" p-id="1352"></path></svg>